# File created by Blade
# Date/Time:  Thu Sep 25 18:39:44 2014
# Frame Rate: 120.000 fps
#------------------------------------------------------
:FULLY-SPECIFIED
:DEGREES
2283
root -1.313750 33.011692 -3.068336 5.988769 8.201579 -0.317815
Spine -12.005577 13.161769 -4.883787
Head -18.758100 -32.995478 28.095683
LeftShoulder 17.129704 13.042329 11.167714
LeftArm 48.752609 21.027486 -80.548183
LeftForeArm -55.286020 -0.000000 123.074792
LeftHand -8.625387 -0.000000 -20.429624
LeftHandThumb1 -26.253704 0.000000 33.147579
RightShoulder 6.088276 32.602112 -32.827553
RightArm 100.845902 -33.276026 60.745028
RightForeArm 16.711042 -0.000000 123.059885
RightHand 0.190635 -0.000000 42.647959
RightHandThumb1 -24.326973 -0.000000 -32.862282
LeftUpLeg -1.548333 3.702924 2.413667
LeftLeg -0.328251 -0.000000 0.000000
LeftFoot -8.324215 -0.648050 -10.641019
LeftToeBase 10.017845 -0.000000 -0.000000
RightUpLeg -1.080697 -9.750302 0.719174
RightLeg 1.500318 -0.000000 -0.000000
RightFoot -8.635964 -3.746104 -0.247676
RightToeBase -0.248482 -0.000000 0.000000
2284
root -1.314324 33.011913 -3.070258 5.990752 8.199767 -0.315372
Spine -12.012194 13.155586 -4.887123
Head -18.740741 -32.983517 28.086711
LeftShoulder 17.129134 13.042069 11.164790
LeftArm 48.773001 21.030440 -80.531034
LeftForeArm -55.269956 -0.000000 123.060147
LeftHand -8.575477 0.000000 -20.425596
LeftHandThumb1 -26.253704 0.000000 33.147579
RightShoulder 6.075567 32.660485 -32.836701
RightArm 100.760978 -33.315755 60.792354
RightForeArm 16.724577 -0.000000 123.069503
RightHand 0.176310 -0.000000 42.626129
RightHandThumb1 -24.326973 -0.000000 -32.862282
LeftUpLeg -1.555219 3.691057 2.410490
LeftLeg -0.328698 -0.000000 0.000000
LeftFoot -8.314212 -0.625182 -10.647847
LeftToeBase 10.055857 -0.000000 -0.000000
RightUpLeg -1.092313 -9.724653 0.716112
RightLeg 1.519113 -0.000000 -0.000000
RightFoot -8.669567 -3.753324 -0.216717
RightToeBase -0.132364 -0.000000 0.000000
2285
root -1.315432 33.012058 -3.070822 5.985806 8.201135 -0.319272
Spine -12.012855 13.149312 -4.879870
Head -18.727620 -32.985196 28.067300
LeftShoulder 17.131912 13.056016 11.173124
LeftArm 48.799158 21.026521 -80.520778
LeftForeArm -55.287060 -0.000000 123.046844
LeftHand -8.584085 -0.000000 -20.418796
LeftHandThumb1 -26.253704 0.000000 33.147579
RightShoulder 6.053402 32.694242 -32.845372
RightArm 100.714459 -33.335211 60.816187
RightForeArm 16.734401 -0.000000 123.061325
RightHand 0.197265 -0.000000 42.618480
RightHandThumb1 -24.326973 -0.000000 -32.862282
LeftUpLeg -1.552774 3.712222 2.418556
LeftLeg -0.323783 -0.000000 0.000000
LeftFoot -8.313758 -0.660430 -10.626380
LeftToeBase 10.011541 -0.000000 -0.000000
RightUpLeg -1.091822 -9.725618 0.720649
RightLeg 1.526038 -0.000000 -0.000000
RightFoot -8.675366 -3.748750 -0.170686
RightToeBase -0.119989 -0.000000 0.000000
2286
root -1.316721 33.012460 -3.072215 5.980263 8.198517 -0.321541
Spine -12.007268 13.148560 -4.893001
Head -18.748843 -32.970569 28.119219
LeftShoulder 17.129828 13.069904 11.256247
LeftArm 48.803076 21.013750 -80.611153
LeftForeArm -55.627241 -0.000000 122.971643
LeftHand -8.713973 -0.000000 -20.757467
LeftHandThumb1 -26.253704 0.000000 33.147579
RightShoulder 6.018780 32.753327 -32.854129
RightArm 100.646207 -33.361836 60.856950
RightForeArm 16.739879 -0.000000 123.085764
RightHand 0.159656 -0.000000 42.605934
RightHandThumb1 -24.326973 -0.000000 -32.862282
LeftUpLeg -1.554043 3.723450 2.422391
LeftLeg -0.314617 -0.000000 0.000000
LeftFoot -8.309160 -0.668099 -10.638802
LeftToeBase 10.027837 -0.000000 -0.000000
RightUpLeg -1.087176 -9.712510 0.724811
RightLeg 1.514068 -0.000000 -0.000000
RightFoot -8.635311 -3.767815 -0.218075
RightToeBase -0.195384 -0.000000 0.000000
2287
root -1.317476 33.012816 -3.073244 5.980851 8.195749 -0.320846
Spine -12.017783 13.143461 -4.892386
Head -18.723856 -32.977227 28.090878
LeftShoulder 17.149161 13.047005 11.199972
LeftArm 48.808553 21.041960 -80.512330
LeftForeArm -55.287393 -0.000000 123.020518
LeftHand -8.538404 -0.000000 -20.457726
LeftHandThumb1 -26.253704 0.000000 33.147579
RightShoulder 6.011276 32.797919 -32.865126
RightArm 100.572314 -33.391916 60.902587
RightForeArm 16.757137 -0.000000 123.082280
RightHand 0.175371 -0.000000 42.608941
RightHandThumb1 -24.326973 -0.000000 -32.862282
LeftUpLeg -1.555625 3.729440 2.423272
LeftLeg -0.314654 -0.000000 0.000000
LeftFoot -8.305103 -0.672528 -10.635354
LeftToeBase 9.955700 -0.000000 -0.000000
RightUpLeg -1.094381 -9.714457 0.726239
RightLeg 1.523173 -0.000000 -0.000000
RightFoot -8.629143 -3.764612 -0.238230
RightToeBase -0.242814 -0.000000 0.000000
